<?xml version="1.0" encoding="UTF-8"?>
<!DOCTYPE svg PUBLIC "-//W3C//DTD SVG 1.1//EN" "http://www.w3.org/Graphics/SVG/1.1/DTD/svg11.dtd">
<svg xmlns="http://www.w3.org/2000/svg" version="1.1" width="512px" height="512px" style="shape-rendering:geometricPrecision; text-rendering:geometricPrecision; image-rendering:optimizeQuality; fill-rule:evenodd; clip-rule:evenodd" xmlns:xlink="http://www.w3.org/1999/xlink">
<g><path style="opacity:0.972" fill="#ffffff" d="M 243.5,41.5 C 252.506,41.3336 261.506,41.5002 270.5,42C 284.355,46.531 289.855,56.031 287,70.5C 283.977,78.1915 278.477,83.0248 270.5,85C 206.794,82.6107 155.628,106.444 117,156.5C 82.3176,208.643 76.3176,263.977 99,322.5C 127.311,382.45 174.478,416.616 240.5,425C 311.246,428.048 365.413,399.882 403,340.5C 420.114,309.374 427.781,276.041 426,240.5C 430.531,226.645 440.031,221.145 454.5,224C 462.192,227.023 467.025,232.523 469,240.5C 471.868,317.914 443.035,380.414 382.5,428C 319.96,471.069 252.626,480.402 180.5,456C 96.8059,420.943 50.6393,358.11 42,267.5C 40.5036,181.304 76.0036,115.471 148.5,70C 178.204,53.4967 209.871,43.9967 243.5,41.5 Z"/></g>
<g><path style="opacity:0.977" fill="#ffffff" d="M 402.5,41.5 C 436.685,40.8746 458.519,56.8746 468,89.5C 471.497,108.845 467.164,126.178 455,141.5C 447.833,148.667 440.667,155.833 433.5,163C 424.167,169 414.833,169 405.5,163C 386.333,143.833 367.167,124.667 348,105.5C 342.866,97.5603 342.2,89.227 346,80.5C 355.907,68.5909 367.074,58.0909 379.5,49C 386.991,45.5576 394.658,43.0576 402.5,41.5 Z"/></g>
<g><path style="opacity:0.984" fill="#ffffff" d="M 297.5,130.5 C 306.04,129.141 313.707,130.975 320.5,136C 340.727,155.559 360.227,175.726 379,196.5C 382.029,204.349 381.362,212.016 377,219.5C 343.833,252.667 310.667,285.833 277.5,319C 275.5,320 273.5,321 271.5,322C 246.167,328.333 220.833,334.667 195.5,341C 186.065,342.365 178.565,339.198 173,331.5C 170.903,327.779 169.736,323.779 169.5,319.5C 175.684,292.765 182.184,266.099 189,239.5C 190,237.5 191,235.5 192,233.5C 225.167,200.333 258.333,167.167 291.5,134C 293.727,133.059 295.727,131.892 297.5,130.5 Z"/></g>
</svg>
